<mxfile host="Electron" modified="2024-05-15T21:44:58.526Z" agent="Mozilla/5.0 (Windows NT 10.0; Win64; x64) AppleWebKit/537.36 (KHTML, like Gecko) draw.io/24.2.5 Chrome/120.0.6099.109 Electron/28.1.0 Safari/537.36" etag="LTOuA223OGqhXK2lPe2m" version="24.2.5" type="device">
  <diagram name="Страница — 1" id="kMqHeCUYpvP0dnkdMaQa">
    <mxGraphModel dx="1567" dy="1185" grid="0" gridSize="10" guides="1" tooltips="1" connect="1" arrows="1" fold="1" page="1" pageScale="1" pageWidth="827" pageHeight="1169" math="0" shadow="0">
      <root>
        <mxCell id="0" />
        <mxCell id="1" parent="0" />
        <mxCell id="LHL5Foc7YoLHMmSsvGCj-5" style="edgeStyle=orthogonalEdgeStyle;rounded=0;orthogonalLoop=1;jettySize=auto;html=1;entryX=1;entryY=0.5;entryDx=0;entryDy=0;endArrow=none;endFill=0;fontSize=14;" parent="1" source="LHL5Foc7YoLHMmSsvGCj-1" target="IrKqsWJ8-aQwSi9_sYCC-1" edge="1">
          <mxGeometry relative="1" as="geometry" />
        </mxCell>
        <mxCell id="cCWil6jc1VgAb4ucHLgY-16" style="edgeStyle=orthogonalEdgeStyle;rounded=0;orthogonalLoop=1;jettySize=auto;html=1;exitX=1;exitY=0.5;exitDx=0;exitDy=0;entryX=0;entryY=0.5;entryDx=0;entryDy=0;strokeColor=default;align=center;verticalAlign=middle;fontFamily=Helvetica;fontSize=11;fontColor=default;labelBackgroundColor=default;endArrow=none;endFill=0;" parent="1" source="LHL5Foc7YoLHMmSsvGCj-1" target="IrKqsWJ8-aQwSi9_sYCC-3" edge="1">
          <mxGeometry relative="1" as="geometry" />
        </mxCell>
        <mxCell id="LHL5Foc7YoLHMmSsvGCj-1" value="Имеет" style="rhombus;whiteSpace=wrap;html=1;fontSize=14;" parent="1" vertex="1">
          <mxGeometry x="204" y="429" width="120" height="70" as="geometry" />
        </mxCell>
        <mxCell id="LHL5Foc7YoLHMmSsvGCj-3" value="" style="group;fontSize=14;" parent="1" vertex="1" connectable="0">
          <mxGeometry x="54" y="244" width="170" height="240" as="geometry" />
        </mxCell>
        <mxCell id="IrKqsWJ8-aQwSi9_sYCC-1" value="Корзина" style="whiteSpace=wrap;html=1;align=center;fontSize=14;" parent="LHL5Foc7YoLHMmSsvGCj-3" vertex="1">
          <mxGeometry y="200" width="100" height="40" as="geometry" />
        </mxCell>
        <mxCell id="IrKqsWJ8-aQwSi9_sYCC-97" style="edgeStyle=orthogonalEdgeStyle;shape=connector;rounded=0;orthogonalLoop=1;jettySize=auto;html=1;exitX=0;exitY=0.5;exitDx=0;exitDy=0;labelBackgroundColor=default;strokeColor=default;align=center;verticalAlign=middle;fontFamily=Helvetica;fontSize=14;fontColor=default;endArrow=none;endFill=0;" parent="LHL5Foc7YoLHMmSsvGCj-3" source="IrKqsWJ8-aQwSi9_sYCC-7" edge="1">
          <mxGeometry relative="1" as="geometry">
            <mxPoint x="49.999999999999886" y="140" as="targetPoint" />
          </mxGeometry>
        </mxCell>
        <mxCell id="IrKqsWJ8-aQwSi9_sYCC-7" value="ID" style="ellipse;whiteSpace=wrap;html=1;align=center;fontStyle=4;fontSize=14;" parent="LHL5Foc7YoLHMmSsvGCj-3" vertex="1">
          <mxGeometry x="70" y="120" width="100" height="40" as="geometry" />
        </mxCell>
        <mxCell id="IrKqsWJ8-aQwSi9_sYCC-98" style="edgeStyle=orthogonalEdgeStyle;shape=connector;rounded=0;orthogonalLoop=1;jettySize=auto;html=1;exitX=0;exitY=0.5;exitDx=0;exitDy=0;labelBackgroundColor=default;strokeColor=default;align=center;verticalAlign=middle;fontFamily=Helvetica;fontSize=14;fontColor=default;endArrow=none;endFill=0;" parent="LHL5Foc7YoLHMmSsvGCj-3" source="IrKqsWJ8-aQwSi9_sYCC-9" edge="1">
          <mxGeometry relative="1" as="geometry">
            <mxPoint x="49.999999999999886" y="80" as="targetPoint" />
          </mxGeometry>
        </mxCell>
        <mxCell id="IrKqsWJ8-aQwSi9_sYCC-9" value="Кол-во&lt;br&gt;товаров" style="ellipse;whiteSpace=wrap;html=1;align=center;fontSize=14;" parent="LHL5Foc7YoLHMmSsvGCj-3" vertex="1">
          <mxGeometry x="70" y="60" width="100" height="40" as="geometry" />
        </mxCell>
        <mxCell id="IrKqsWJ8-aQwSi9_sYCC-10" value="Сумма" style="ellipse;whiteSpace=wrap;html=1;align=center;fontSize=14;" parent="LHL5Foc7YoLHMmSsvGCj-3" vertex="1">
          <mxGeometry x="70" width="100" height="40" as="geometry" />
        </mxCell>
        <mxCell id="IrKqsWJ8-aQwSi9_sYCC-14" style="edgeStyle=orthogonalEdgeStyle;shape=connector;rounded=0;orthogonalLoop=1;jettySize=auto;html=1;exitX=0.5;exitY=0;exitDx=0;exitDy=0;entryX=0;entryY=0.5;entryDx=0;entryDy=0;labelBackgroundColor=default;strokeColor=default;align=center;verticalAlign=middle;fontFamily=Helvetica;fontSize=14;fontColor=default;endArrow=none;endFill=0;" parent="LHL5Foc7YoLHMmSsvGCj-3" source="IrKqsWJ8-aQwSi9_sYCC-1" target="IrKqsWJ8-aQwSi9_sYCC-10" edge="1">
          <mxGeometry relative="1" as="geometry" />
        </mxCell>
        <mxCell id="LHL5Foc7YoLHMmSsvGCj-9" value="Оформляет" style="rhombus;whiteSpace=wrap;html=1;fontSize=14;rotation=0;" parent="1" vertex="1">
          <mxGeometry x="520" y="429" width="120" height="70" as="geometry" />
        </mxCell>
        <mxCell id="LHL5Foc7YoLHMmSsvGCj-20" style="edgeStyle=orthogonalEdgeStyle;rounded=0;orthogonalLoop=1;jettySize=auto;html=1;exitX=0.5;exitY=1;exitDx=0;exitDy=0;entryX=0.5;entryY=0;entryDx=0;entryDy=0;labelBackgroundColor=default;strokeColor=default;align=center;verticalAlign=middle;fontFamily=Helvetica;fontSize=14;fontColor=default;endArrow=none;endFill=0;" parent="1" source="LHL5Foc7YoLHMmSsvGCj-15" target="IrKqsWJ8-aQwSi9_sYCC-4" edge="1">
          <mxGeometry relative="1" as="geometry" />
        </mxCell>
        <mxCell id="LHL5Foc7YoLHMmSsvGCj-15" value="Содержит" style="rhombus;whiteSpace=wrap;html=1;fontSize=14;" parent="1" vertex="1">
          <mxGeometry x="361" y="527" width="120" height="70" as="geometry" />
        </mxCell>
        <mxCell id="LHL5Foc7YoLHMmSsvGCj-17" value="" style="group;fontSize=14;" parent="1" vertex="1" connectable="0">
          <mxGeometry x="301" y="637" width="170" height="490" as="geometry" />
        </mxCell>
        <mxCell id="IrKqsWJ8-aQwSi9_sYCC-4" value="Ракетка" style="whiteSpace=wrap;html=1;align=center;fontSize=14;" parent="LHL5Foc7YoLHMmSsvGCj-17" vertex="1">
          <mxGeometry x="70" width="100" height="40" as="geometry" />
        </mxCell>
        <mxCell id="IrKqsWJ8-aQwSi9_sYCC-56" style="edgeStyle=orthogonalEdgeStyle;shape=connector;rounded=0;orthogonalLoop=1;jettySize=auto;html=1;exitX=0.5;exitY=1;exitDx=0;exitDy=0;entryX=1;entryY=0.5;entryDx=0;entryDy=0;labelBackgroundColor=default;strokeColor=default;align=center;verticalAlign=middle;fontFamily=Helvetica;fontSize=14;fontColor=default;endArrow=none;endFill=0;" parent="LHL5Foc7YoLHMmSsvGCj-17" source="IrKqsWJ8-aQwSi9_sYCC-4" target="IrKqsWJ8-aQwSi9_sYCC-48" edge="1">
          <mxGeometry relative="1" as="geometry" />
        </mxCell>
        <mxCell id="IrKqsWJ8-aQwSi9_sYCC-87" style="edgeStyle=orthogonalEdgeStyle;shape=connector;rounded=0;orthogonalLoop=1;jettySize=auto;html=1;exitX=1;exitY=0.5;exitDx=0;exitDy=0;labelBackgroundColor=default;strokeColor=default;align=center;verticalAlign=middle;fontFamily=Helvetica;fontSize=14;fontColor=default;endArrow=none;endFill=0;" parent="LHL5Foc7YoLHMmSsvGCj-17" source="IrKqsWJ8-aQwSi9_sYCC-63" edge="1">
          <mxGeometry relative="1" as="geometry">
            <mxPoint x="120" y="410.217391304348" as="targetPoint" />
          </mxGeometry>
        </mxCell>
        <mxCell id="IrKqsWJ8-aQwSi9_sYCC-63" value="Количество" style="ellipse;whiteSpace=wrap;html=1;align=center;fontSize=14;" parent="LHL5Foc7YoLHMmSsvGCj-17" vertex="1">
          <mxGeometry y="390" width="100" height="40" as="geometry" />
        </mxCell>
        <mxCell id="IrKqsWJ8-aQwSi9_sYCC-83" style="edgeStyle=orthogonalEdgeStyle;shape=connector;rounded=0;orthogonalLoop=1;jettySize=auto;html=1;exitX=1;exitY=0.5;exitDx=0;exitDy=0;labelBackgroundColor=default;strokeColor=default;align=center;verticalAlign=middle;fontFamily=Helvetica;fontSize=14;fontColor=default;endArrow=none;endFill=0;" parent="LHL5Foc7YoLHMmSsvGCj-17" source="IrKqsWJ8-aQwSi9_sYCC-45" edge="1">
          <mxGeometry relative="1" as="geometry">
            <mxPoint x="120" y="170.21739130434798" as="targetPoint" />
          </mxGeometry>
        </mxCell>
        <mxCell id="IrKqsWJ8-aQwSi9_sYCC-45" value="Фирма" style="ellipse;whiteSpace=wrap;html=1;align=center;fontSize=14;" parent="LHL5Foc7YoLHMmSsvGCj-17" vertex="1">
          <mxGeometry y="150" width="100" height="40" as="geometry" />
        </mxCell>
        <mxCell id="IrKqsWJ8-aQwSi9_sYCC-84" style="edgeStyle=orthogonalEdgeStyle;shape=connector;rounded=0;orthogonalLoop=1;jettySize=auto;html=1;exitX=1;exitY=0.5;exitDx=0;exitDy=0;labelBackgroundColor=default;strokeColor=default;align=center;verticalAlign=middle;fontFamily=Helvetica;fontSize=14;fontColor=default;endArrow=none;endFill=0;" parent="LHL5Foc7YoLHMmSsvGCj-17" source="IrKqsWJ8-aQwSi9_sYCC-46" edge="1">
          <mxGeometry relative="1" as="geometry">
            <mxPoint x="120" y="230.21739130434798" as="targetPoint" />
          </mxGeometry>
        </mxCell>
        <mxCell id="IrKqsWJ8-aQwSi9_sYCC-46" value="Вес" style="ellipse;whiteSpace=wrap;html=1;align=center;fontSize=14;" parent="LHL5Foc7YoLHMmSsvGCj-17" vertex="1">
          <mxGeometry y="210" width="100" height="40" as="geometry" />
        </mxCell>
        <mxCell id="IrKqsWJ8-aQwSi9_sYCC-85" style="edgeStyle=orthogonalEdgeStyle;shape=connector;rounded=0;orthogonalLoop=1;jettySize=auto;html=1;exitX=1;exitY=0.5;exitDx=0;exitDy=0;labelBackgroundColor=default;strokeColor=default;align=center;verticalAlign=middle;fontFamily=Helvetica;fontSize=14;fontColor=default;endArrow=none;endFill=0;" parent="LHL5Foc7YoLHMmSsvGCj-17" source="IrKqsWJ8-aQwSi9_sYCC-47" edge="1">
          <mxGeometry relative="1" as="geometry">
            <mxPoint x="120" y="290.217391304348" as="targetPoint" />
          </mxGeometry>
        </mxCell>
        <mxCell id="IrKqsWJ8-aQwSi9_sYCC-47" value="Баланс" style="ellipse;whiteSpace=wrap;html=1;align=center;fontSize=14;" parent="LHL5Foc7YoLHMmSsvGCj-17" vertex="1">
          <mxGeometry y="270" width="100" height="40" as="geometry" />
        </mxCell>
        <mxCell id="IrKqsWJ8-aQwSi9_sYCC-48" value="Цена" style="ellipse;whiteSpace=wrap;html=1;align=center;fontSize=14;" parent="LHL5Foc7YoLHMmSsvGCj-17" vertex="1">
          <mxGeometry y="450" width="100" height="40" as="geometry" />
        </mxCell>
        <mxCell id="IrKqsWJ8-aQwSi9_sYCC-86" style="edgeStyle=orthogonalEdgeStyle;shape=connector;rounded=0;orthogonalLoop=1;jettySize=auto;html=1;exitX=1;exitY=0.5;exitDx=0;exitDy=0;labelBackgroundColor=default;strokeColor=default;align=center;verticalAlign=middle;fontFamily=Helvetica;fontSize=14;fontColor=default;endArrow=none;endFill=0;" parent="LHL5Foc7YoLHMmSsvGCj-17" source="IrKqsWJ8-aQwSi9_sYCC-49" edge="1">
          <mxGeometry relative="1" as="geometry">
            <mxPoint x="120" y="350.217391304348" as="targetPoint" />
          </mxGeometry>
        </mxCell>
        <mxCell id="IrKqsWJ8-aQwSi9_sYCC-49" value="Размер головы" style="ellipse;whiteSpace=wrap;html=1;align=center;fontSize=14;" parent="LHL5Foc7YoLHMmSsvGCj-17" vertex="1">
          <mxGeometry y="330" width="100" height="40" as="geometry" />
        </mxCell>
        <mxCell id="LHL5Foc7YoLHMmSsvGCj-52" style="edgeStyle=orthogonalEdgeStyle;shape=connector;rounded=0;orthogonalLoop=1;jettySize=auto;html=1;exitX=1;exitY=0.5;exitDx=0;exitDy=0;labelBackgroundColor=default;strokeColor=default;align=center;verticalAlign=middle;fontFamily=Helvetica;fontSize=14;fontColor=default;endArrow=none;endFill=0;" parent="LHL5Foc7YoLHMmSsvGCj-17" source="LHL5Foc7YoLHMmSsvGCj-51" edge="1">
          <mxGeometry relative="1" as="geometry">
            <mxPoint x="120" y="110.10144927536226" as="targetPoint" />
          </mxGeometry>
        </mxCell>
        <mxCell id="LHL5Foc7YoLHMmSsvGCj-51" value="ID" style="ellipse;whiteSpace=wrap;html=1;align=center;fontStyle=4;fontSize=14;" parent="LHL5Foc7YoLHMmSsvGCj-17" vertex="1">
          <mxGeometry y="90" width="100" height="40" as="geometry" />
        </mxCell>
        <mxCell id="ERxYZbl17Q_ZvHy1yofv-3" style="edgeStyle=orthogonalEdgeStyle;rounded=0;orthogonalLoop=1;jettySize=auto;html=1;exitX=0;exitY=0.5;exitDx=0;exitDy=0;strokeColor=default;align=center;verticalAlign=middle;fontFamily=Helvetica;fontSize=11;fontColor=default;labelBackgroundColor=default;endArrow=none;endFill=0;" parent="1" source="LHL5Foc7YoLHMmSsvGCj-24" target="IrKqsWJ8-aQwSi9_sYCC-5" edge="1">
          <mxGeometry relative="1" as="geometry" />
        </mxCell>
        <mxCell id="ERxYZbl17Q_ZvHy1yofv-4" style="edgeStyle=orthogonalEdgeStyle;rounded=0;orthogonalLoop=1;jettySize=auto;html=1;exitX=1;exitY=0.5;exitDx=0;exitDy=0;entryX=0;entryY=0.5;entryDx=0;entryDy=0;strokeColor=default;align=center;verticalAlign=middle;fontFamily=Helvetica;fontSize=11;fontColor=default;labelBackgroundColor=default;endArrow=ERmany;endFill=0;" parent="1" source="LHL5Foc7YoLHMmSsvGCj-24" target="IrKqsWJ8-aQwSi9_sYCC-4" edge="1">
          <mxGeometry relative="1" as="geometry" />
        </mxCell>
        <mxCell id="LHL5Foc7YoLHMmSsvGCj-24" value="Имеет" style="rhombus;whiteSpace=wrap;html=1;fontSize=14;" parent="1" vertex="1">
          <mxGeometry x="201" y="622" width="120" height="70" as="geometry" />
        </mxCell>
        <mxCell id="ERxYZbl17Q_ZvHy1yofv-5" style="edgeStyle=orthogonalEdgeStyle;rounded=0;orthogonalLoop=1;jettySize=auto;html=1;exitX=0;exitY=0.5;exitDx=0;exitDy=0;strokeColor=default;align=center;verticalAlign=middle;fontFamily=Helvetica;fontSize=11;fontColor=default;labelBackgroundColor=default;endArrow=ERmany;endFill=0;" parent="1" source="LHL5Foc7YoLHMmSsvGCj-25" target="IrKqsWJ8-aQwSi9_sYCC-4" edge="1">
          <mxGeometry relative="1" as="geometry" />
        </mxCell>
        <mxCell id="ERxYZbl17Q_ZvHy1yofv-6" style="edgeStyle=orthogonalEdgeStyle;rounded=0;orthogonalLoop=1;jettySize=auto;html=1;exitX=1;exitY=0.5;exitDx=0;exitDy=0;entryX=0;entryY=0.5;entryDx=0;entryDy=0;strokeColor=default;align=center;verticalAlign=middle;fontFamily=Helvetica;fontSize=11;fontColor=default;labelBackgroundColor=default;endArrow=ERmany;endFill=0;" parent="1" source="LHL5Foc7YoLHMmSsvGCj-25" target="IrKqsWJ8-aQwSi9_sYCC-6" edge="1">
          <mxGeometry relative="1" as="geometry" />
        </mxCell>
        <mxCell id="LHL5Foc7YoLHMmSsvGCj-25" value="Содержит" style="rhombus;whiteSpace=wrap;html=1;fontSize=14;" parent="1" vertex="1">
          <mxGeometry x="520" y="622" width="120" height="70" as="geometry" />
        </mxCell>
        <mxCell id="LHL5Foc7YoLHMmSsvGCj-44" style="edgeStyle=orthogonalEdgeStyle;rounded=0;orthogonalLoop=1;jettySize=auto;html=1;exitX=0.5;exitY=1;exitDx=0;exitDy=0;labelBackgroundColor=default;strokeColor=default;align=center;verticalAlign=middle;fontFamily=Helvetica;fontSize=14;fontColor=default;endArrow=none;endFill=0;" parent="1" source="IrKqsWJ8-aQwSi9_sYCC-3" target="LHL5Foc7YoLHMmSsvGCj-15" edge="1">
          <mxGeometry relative="1" as="geometry" />
        </mxCell>
        <mxCell id="LHL5Foc7YoLHMmSsvGCj-46" style="edgeStyle=orthogonalEdgeStyle;shape=connector;rounded=0;orthogonalLoop=1;jettySize=auto;html=1;exitX=0.5;exitY=1;exitDx=0;exitDy=0;entryX=0;entryY=0.5;entryDx=0;entryDy=0;labelBackgroundColor=default;strokeColor=default;align=center;verticalAlign=middle;fontFamily=Helvetica;fontSize=14;fontColor=default;endArrow=none;endFill=0;" parent="1" source="IrKqsWJ8-aQwSi9_sYCC-5" target="IrKqsWJ8-aQwSi9_sYCC-88" edge="1">
          <mxGeometry relative="1" as="geometry">
            <mxPoint x="121" y="987" as="targetPoint" />
          </mxGeometry>
        </mxCell>
        <mxCell id="IrKqsWJ8-aQwSi9_sYCC-5" value="Поставщик" style="whiteSpace=wrap;html=1;align=center;fontSize=14;" parent="1" vertex="1">
          <mxGeometry x="51" y="637" width="100" height="40" as="geometry" />
        </mxCell>
        <mxCell id="IrKqsWJ8-aQwSi9_sYCC-94" value="" style="group;fontSize=14;" parent="1" vertex="1" connectable="0">
          <mxGeometry x="121" y="727" width="100" height="280" as="geometry" />
        </mxCell>
        <mxCell id="LHL5Foc7YoLHMmSsvGCj-47" style="edgeStyle=orthogonalEdgeStyle;shape=connector;rounded=0;orthogonalLoop=1;jettySize=auto;html=1;exitX=0;exitY=0.5;exitDx=0;exitDy=0;labelBackgroundColor=default;strokeColor=default;align=center;verticalAlign=middle;fontFamily=Helvetica;fontSize=14;fontColor=default;endArrow=none;endFill=0;" parent="IrKqsWJ8-aQwSi9_sYCC-94" source="IrKqsWJ8-aQwSi9_sYCC-71" edge="1">
          <mxGeometry relative="1" as="geometry">
            <mxPoint x="-20" y="19.727272727272748" as="targetPoint" />
          </mxGeometry>
        </mxCell>
        <mxCell id="IrKqsWJ8-aQwSi9_sYCC-71" value="ID" style="ellipse;whiteSpace=wrap;html=1;align=center;fontStyle=4;fontSize=14;" parent="IrKqsWJ8-aQwSi9_sYCC-94" vertex="1">
          <mxGeometry width="100" height="40" as="geometry" />
        </mxCell>
        <mxCell id="LHL5Foc7YoLHMmSsvGCj-48" style="edgeStyle=orthogonalEdgeStyle;shape=connector;rounded=0;orthogonalLoop=1;jettySize=auto;html=1;exitX=0;exitY=0.5;exitDx=0;exitDy=0;labelBackgroundColor=default;strokeColor=default;align=center;verticalAlign=middle;fontFamily=Helvetica;fontSize=14;fontColor=default;endArrow=none;endFill=0;" parent="IrKqsWJ8-aQwSi9_sYCC-94" source="IrKqsWJ8-aQwSi9_sYCC-72" edge="1">
          <mxGeometry relative="1" as="geometry">
            <mxPoint x="-20" y="79.72727272727275" as="targetPoint" />
          </mxGeometry>
        </mxCell>
        <mxCell id="IrKqsWJ8-aQwSi9_sYCC-72" value="Организация" style="ellipse;whiteSpace=wrap;html=1;align=center;fontSize=14;" parent="IrKqsWJ8-aQwSi9_sYCC-94" vertex="1">
          <mxGeometry y="60" width="100" height="40" as="geometry" />
        </mxCell>
        <mxCell id="LHL5Foc7YoLHMmSsvGCj-49" style="edgeStyle=orthogonalEdgeStyle;shape=connector;rounded=0;orthogonalLoop=1;jettySize=auto;html=1;exitX=0;exitY=0.5;exitDx=0;exitDy=0;labelBackgroundColor=default;strokeColor=default;align=center;verticalAlign=middle;fontFamily=Helvetica;fontSize=14;fontColor=default;endArrow=none;endFill=0;" parent="IrKqsWJ8-aQwSi9_sYCC-94" source="IrKqsWJ8-aQwSi9_sYCC-73" edge="1">
          <mxGeometry relative="1" as="geometry">
            <mxPoint x="-20" y="139.72727272727275" as="targetPoint" />
          </mxGeometry>
        </mxCell>
        <mxCell id="IrKqsWJ8-aQwSi9_sYCC-73" value="Email" style="ellipse;whiteSpace=wrap;html=1;align=center;fontSize=14;" parent="IrKqsWJ8-aQwSi9_sYCC-94" vertex="1">
          <mxGeometry y="120" width="100" height="40" as="geometry" />
        </mxCell>
        <mxCell id="IrKqsWJ8-aQwSi9_sYCC-88" value="Телефон" style="ellipse;whiteSpace=wrap;html=1;align=center;fontSize=14;" parent="IrKqsWJ8-aQwSi9_sYCC-94" vertex="1">
          <mxGeometry y="180" width="100" height="40" as="geometry" />
        </mxCell>
        <mxCell id="r1-rulJzmWZsiuBuZOI--6" style="edgeStyle=orthogonalEdgeStyle;rounded=0;orthogonalLoop=1;jettySize=auto;html=1;exitX=1;exitY=0.5;exitDx=0;exitDy=0;endArrow=ERmany;endFill=0;entryX=0.5;entryY=0;entryDx=0;entryDy=0;" parent="1" source="r1-rulJzmWZsiuBuZOI--1" target="IrKqsWJ8-aQwSi9_sYCC-4" edge="1">
          <mxGeometry relative="1" as="geometry">
            <Array as="points">
              <mxPoint x="264" y="562" />
              <mxPoint x="264" y="607" />
              <mxPoint x="421" y="607" />
            </Array>
          </mxGeometry>
        </mxCell>
        <mxCell id="r1-rulJzmWZsiuBuZOI--1" value="Содержит" style="rhombus;whiteSpace=wrap;html=1;fontSize=14;" parent="1" vertex="1">
          <mxGeometry x="44" y="527" width="120" height="70" as="geometry" />
        </mxCell>
        <mxCell id="r1-rulJzmWZsiuBuZOI--2" style="edgeStyle=orthogonalEdgeStyle;rounded=0;orthogonalLoop=1;jettySize=auto;html=1;exitX=0;exitY=0.5;exitDx=0;exitDy=0;entryX=0;entryY=0.5;entryDx=0;entryDy=0;endArrow=none;endFill=0;fontSize=14;" parent="1" source="IrKqsWJ8-aQwSi9_sYCC-1" target="r1-rulJzmWZsiuBuZOI--1" edge="1">
          <mxGeometry relative="1" as="geometry" />
        </mxCell>
        <mxCell id="cCWil6jc1VgAb4ucHLgY-18" style="edgeStyle=orthogonalEdgeStyle;rounded=0;orthogonalLoop=1;jettySize=auto;html=1;exitX=0.5;exitY=1;exitDx=0;exitDy=0;strokeColor=default;align=center;verticalAlign=middle;fontFamily=Helvetica;fontSize=11;fontColor=default;labelBackgroundColor=default;endArrow=ERmany;endFill=0;" parent="1" source="H7CWVhsYjTYwJcJPe3T3-30" target="IrKqsWJ8-aQwSi9_sYCC-6" edge="1">
          <mxGeometry relative="1" as="geometry" />
        </mxCell>
        <mxCell id="H7CWVhsYjTYwJcJPe3T3-30" value="Оставляет" style="rhombus;whiteSpace=wrap;html=1;fontSize=14;" parent="1" vertex="1">
          <mxGeometry x="674" y="527" width="120" height="70" as="geometry" />
        </mxCell>
        <mxCell id="LHL5Foc7YoLHMmSsvGCj-18" value="" style="group;fontSize=14;" parent="1" vertex="1" connectable="0">
          <mxGeometry x="684" y="637" width="100" height="40" as="geometry" />
        </mxCell>
        <mxCell id="IrKqsWJ8-aQwSi9_sYCC-6" value="Отзыв" style="whiteSpace=wrap;html=1;align=center;fontSize=14;" parent="LHL5Foc7YoLHMmSsvGCj-18" vertex="1">
          <mxGeometry width="100" height="40" as="geometry" />
        </mxCell>
        <mxCell id="cCWil6jc1VgAb4ucHLgY-5" value="" style="group" parent="1" vertex="1" connectable="0">
          <mxGeometry x="614" y="730" width="120" height="160" as="geometry" />
        </mxCell>
        <mxCell id="IrKqsWJ8-aQwSi9_sYCC-77" style="edgeStyle=orthogonalEdgeStyle;shape=connector;rounded=0;orthogonalLoop=1;jettySize=auto;html=1;exitX=1;exitY=0.5;exitDx=0;exitDy=0;labelBackgroundColor=default;strokeColor=default;align=center;verticalAlign=middle;fontFamily=Helvetica;fontSize=14;fontColor=default;endArrow=none;endFill=0;" parent="cCWil6jc1VgAb4ucHLgY-5" source="IrKqsWJ8-aQwSi9_sYCC-75" edge="1">
          <mxGeometry relative="1" as="geometry">
            <mxPoint x="120" y="80.40000000000009" as="targetPoint" />
          </mxGeometry>
        </mxCell>
        <mxCell id="IrKqsWJ8-aQwSi9_sYCC-75" value="Рейтинг" style="ellipse;whiteSpace=wrap;html=1;align=center;fontSize=14;" parent="cCWil6jc1VgAb4ucHLgY-5" vertex="1">
          <mxGeometry y="60" width="97.5609756097561" height="40" as="geometry" />
        </mxCell>
        <mxCell id="IrKqsWJ8-aQwSi9_sYCC-80" style="edgeStyle=orthogonalEdgeStyle;shape=connector;rounded=0;orthogonalLoop=1;jettySize=auto;html=1;exitX=1;exitY=0.5;exitDx=0;exitDy=0;labelBackgroundColor=default;strokeColor=default;align=center;verticalAlign=middle;fontFamily=Helvetica;fontSize=14;fontColor=default;endArrow=none;endFill=0;" parent="cCWil6jc1VgAb4ucHLgY-5" source="IrKqsWJ8-aQwSi9_sYCC-61" edge="1">
          <mxGeometry relative="1" as="geometry">
            <mxPoint x="120" y="20" as="targetPoint" />
          </mxGeometry>
        </mxCell>
        <mxCell id="IrKqsWJ8-aQwSi9_sYCC-61" value="Текст" style="ellipse;whiteSpace=wrap;html=1;align=center;fontSize=14;" parent="cCWil6jc1VgAb4ucHLgY-5" vertex="1">
          <mxGeometry width="97.5609756097561" height="40" as="geometry" />
        </mxCell>
        <mxCell id="IrKqsWJ8-aQwSi9_sYCC-81" style="edgeStyle=orthogonalEdgeStyle;shape=connector;rounded=0;orthogonalLoop=1;jettySize=auto;html=1;exitX=1;exitY=0.5;exitDx=0;exitDy=0;labelBackgroundColor=default;strokeColor=default;align=center;verticalAlign=middle;fontFamily=Helvetica;fontSize=14;fontColor=default;endArrow=none;endFill=0;" parent="cCWil6jc1VgAb4ucHLgY-5" source="IrKqsWJ8-aQwSi9_sYCC-62" edge="1">
          <mxGeometry relative="1" as="geometry">
            <mxPoint x="120" y="140" as="targetPoint" />
          </mxGeometry>
        </mxCell>
        <mxCell id="IrKqsWJ8-aQwSi9_sYCC-62" value="Дата" style="ellipse;whiteSpace=wrap;html=1;align=center;fontSize=14;" parent="cCWil6jc1VgAb4ucHLgY-5" vertex="1">
          <mxGeometry y="120" width="97.5609756097561" height="40" as="geometry" />
        </mxCell>
        <mxCell id="cCWil6jc1VgAb4ucHLgY-6" style="edgeStyle=orthogonalEdgeStyle;rounded=0;orthogonalLoop=1;jettySize=auto;html=1;exitX=0.5;exitY=1;exitDx=0;exitDy=0;entryX=1;entryY=0.5;entryDx=0;entryDy=0;endArrow=none;endFill=0;" parent="1" source="IrKqsWJ8-aQwSi9_sYCC-6" target="IrKqsWJ8-aQwSi9_sYCC-62" edge="1">
          <mxGeometry relative="1" as="geometry" />
        </mxCell>
        <mxCell id="cCWil6jc1VgAb4ucHLgY-17" style="edgeStyle=orthogonalEdgeStyle;rounded=0;orthogonalLoop=1;jettySize=auto;html=1;exitX=0.5;exitY=1;exitDx=0;exitDy=0;strokeColor=default;align=center;verticalAlign=middle;fontFamily=Helvetica;fontSize=11;fontColor=default;labelBackgroundColor=default;endArrow=none;endFill=0;" parent="1" source="IrKqsWJ8-aQwSi9_sYCC-2" target="H7CWVhsYjTYwJcJPe3T3-30" edge="1">
          <mxGeometry relative="1" as="geometry" />
        </mxCell>
        <mxCell id="LHL5Foc7YoLHMmSsvGCj-11" style="edgeStyle=orthogonalEdgeStyle;shape=connector;rounded=0;orthogonalLoop=1;jettySize=auto;html=1;exitX=1;exitY=0.5;exitDx=0;exitDy=0;entryX=0;entryY=0.5;entryDx=0;entryDy=0;labelBackgroundColor=default;strokeColor=default;align=center;verticalAlign=middle;fontFamily=Helvetica;fontSize=14;fontColor=default;endArrow=none;endFill=0;" parent="1" source="LHL5Foc7YoLHMmSsvGCj-9" target="IrKqsWJ8-aQwSi9_sYCC-2" edge="1">
          <mxGeometry relative="1" as="geometry" />
        </mxCell>
        <mxCell id="IrKqsWJ8-aQwSi9_sYCC-2" value="Пользователь" style="whiteSpace=wrap;html=1;align=center;fontSize=14;" parent="1" vertex="1">
          <mxGeometry x="684" y="444" width="100" height="40" as="geometry" />
        </mxCell>
        <mxCell id="IrKqsWJ8-aQwSi9_sYCC-103" style="edgeStyle=orthogonalEdgeStyle;shape=connector;rounded=0;orthogonalLoop=1;jettySize=auto;html=1;exitX=1;exitY=0.5;exitDx=0;exitDy=0;labelBackgroundColor=default;strokeColor=default;align=center;verticalAlign=middle;fontFamily=Helvetica;fontSize=14;fontColor=default;endArrow=none;endFill=0;" parent="1" source="IrKqsWJ8-aQwSi9_sYCC-15" edge="1">
          <mxGeometry relative="1" as="geometry">
            <mxPoint x="734.0000000000001" y="384" as="targetPoint" />
          </mxGeometry>
        </mxCell>
        <mxCell id="IrKqsWJ8-aQwSi9_sYCC-15" value="ID" style="ellipse;whiteSpace=wrap;html=1;align=center;fontStyle=4;fontSize=14;" parent="1" vertex="1">
          <mxGeometry x="614" y="364" width="100" height="40" as="geometry" />
        </mxCell>
        <mxCell id="IrKqsWJ8-aQwSi9_sYCC-102" style="edgeStyle=orthogonalEdgeStyle;shape=connector;rounded=0;orthogonalLoop=1;jettySize=auto;html=1;exitX=1;exitY=0.5;exitDx=0;exitDy=0;labelBackgroundColor=default;strokeColor=default;align=center;verticalAlign=middle;fontFamily=Helvetica;fontSize=14;fontColor=default;endArrow=none;endFill=0;" parent="1" source="IrKqsWJ8-aQwSi9_sYCC-17" edge="1">
          <mxGeometry relative="1" as="geometry">
            <mxPoint x="734.0000000000001" y="324" as="targetPoint" />
          </mxGeometry>
        </mxCell>
        <mxCell id="IrKqsWJ8-aQwSi9_sYCC-17" value="Имя" style="ellipse;whiteSpace=wrap;html=1;align=center;fontSize=14;" parent="1" vertex="1">
          <mxGeometry x="614" y="304" width="100" height="40" as="geometry" />
        </mxCell>
        <mxCell id="IrKqsWJ8-aQwSi9_sYCC-101" style="edgeStyle=orthogonalEdgeStyle;shape=connector;rounded=0;orthogonalLoop=1;jettySize=auto;html=1;exitX=1;exitY=0.5;exitDx=0;exitDy=0;labelBackgroundColor=default;strokeColor=default;align=center;verticalAlign=middle;fontFamily=Helvetica;fontSize=14;fontColor=default;endArrow=none;endFill=0;" parent="1" source="IrKqsWJ8-aQwSi9_sYCC-19" edge="1">
          <mxGeometry relative="1" as="geometry">
            <mxPoint x="734.0000000000001" y="264" as="targetPoint" />
          </mxGeometry>
        </mxCell>
        <mxCell id="IrKqsWJ8-aQwSi9_sYCC-19" value="Фамилия" style="ellipse;whiteSpace=wrap;html=1;align=center;fontSize=14;" parent="1" vertex="1">
          <mxGeometry x="614" y="244" width="100" height="40" as="geometry" />
        </mxCell>
        <mxCell id="IrKqsWJ8-aQwSi9_sYCC-24" value="&lt;div&gt;Email&lt;br&gt;&lt;/div&gt;" style="ellipse;whiteSpace=wrap;html=1;align=center;fontSize=14;" parent="1" vertex="1">
          <mxGeometry x="614" y="184" width="100" height="40" as="geometry" />
        </mxCell>
        <mxCell id="IrKqsWJ8-aQwSi9_sYCC-32" style="edgeStyle=orthogonalEdgeStyle;shape=connector;rounded=0;orthogonalLoop=1;jettySize=auto;html=1;exitX=0.5;exitY=0;exitDx=0;exitDy=0;labelBackgroundColor=default;strokeColor=default;align=center;verticalAlign=middle;fontFamily=Helvetica;fontSize=14;fontColor=default;endArrow=none;endFill=0;entryX=1;entryY=0.5;entryDx=0;entryDy=0;" parent="1" target="X61aSGdKCso7lp-42TTh-1" edge="1">
          <mxGeometry relative="1" as="geometry">
            <mxPoint x="730" y="150" as="targetPoint" />
            <Array as="points">
              <mxPoint x="734" y="144" />
            </Array>
            <mxPoint x="734" y="444" as="sourcePoint" />
          </mxGeometry>
        </mxCell>
        <mxCell id="ZUfEE-Q4AOUW63MSSEwQ-18" style="edgeStyle=orthogonalEdgeStyle;rounded=0;orthogonalLoop=1;jettySize=auto;html=1;exitX=0.5;exitY=0;exitDx=0;exitDy=0;entryX=0.5;entryY=1;entryDx=0;entryDy=0;strokeColor=default;align=center;verticalAlign=middle;fontFamily=Helvetica;fontSize=11;fontColor=default;labelBackgroundColor=default;endArrow=none;endFill=0;" parent="1" source="ZUfEE-Q4AOUW63MSSEwQ-1" target="ZUfEE-Q4AOUW63MSSEwQ-5" edge="1">
          <mxGeometry relative="1" as="geometry" />
        </mxCell>
        <mxCell id="ZUfEE-Q4AOUW63MSSEwQ-1" value="Имеет" style="rhombus;whiteSpace=wrap;html=1;fontSize=14;" parent="1" vertex="1">
          <mxGeometry x="474" y="304" width="120" height="70" as="geometry" />
        </mxCell>
        <mxCell id="ERxYZbl17Q_ZvHy1yofv-1" style="edgeStyle=orthogonalEdgeStyle;rounded=0;orthogonalLoop=1;jettySize=auto;html=1;exitX=0;exitY=0.5;exitDx=0;exitDy=0;endArrow=ERmany;endFill=0;" parent="1" source="LHL5Foc7YoLHMmSsvGCj-9" target="IrKqsWJ8-aQwSi9_sYCC-3" edge="1">
          <mxGeometry relative="1" as="geometry" />
        </mxCell>
        <mxCell id="ZUfEE-Q4AOUW63MSSEwQ-17" style="edgeStyle=orthogonalEdgeStyle;rounded=0;orthogonalLoop=1;jettySize=auto;html=1;exitX=0.75;exitY=0;exitDx=0;exitDy=0;entryX=0.5;entryY=1;entryDx=0;entryDy=0;strokeColor=default;align=center;verticalAlign=middle;fontFamily=Helvetica;fontSize=11;fontColor=default;labelBackgroundColor=default;endArrow=none;endFill=0;" parent="1" source="IrKqsWJ8-aQwSi9_sYCC-3" target="ZUfEE-Q4AOUW63MSSEwQ-1" edge="1">
          <mxGeometry relative="1" as="geometry" />
        </mxCell>
        <mxCell id="IrKqsWJ8-aQwSi9_sYCC-3" value="Заказ" style="whiteSpace=wrap;html=1;align=center;fontSize=14;" parent="1" vertex="1">
          <mxGeometry x="371" y="444" width="100" height="40" as="geometry" />
        </mxCell>
        <mxCell id="LHL5Foc7YoLHMmSsvGCj-42" style="edgeStyle=orthogonalEdgeStyle;shape=connector;rounded=0;orthogonalLoop=1;jettySize=auto;html=1;exitX=1;exitY=0.5;exitDx=0;exitDy=0;labelBackgroundColor=default;strokeColor=default;align=center;verticalAlign=middle;fontFamily=Helvetica;fontSize=14;fontColor=default;endArrow=none;endFill=0;" parent="1" source="IrKqsWJ8-aQwSi9_sYCC-28" edge="1">
          <mxGeometry relative="1" as="geometry">
            <mxPoint x="421" y="383.9767441860465" as="targetPoint" />
          </mxGeometry>
        </mxCell>
        <mxCell id="IrKqsWJ8-aQwSi9_sYCC-28" value="ID" style="ellipse;whiteSpace=wrap;html=1;align=center;fontStyle=4;fontSize=14;" parent="1" vertex="1">
          <mxGeometry x="301" y="364" width="100" height="40" as="geometry" />
        </mxCell>
        <mxCell id="LHL5Foc7YoLHMmSsvGCj-41" style="edgeStyle=orthogonalEdgeStyle;shape=connector;rounded=0;orthogonalLoop=1;jettySize=auto;html=1;exitX=1;exitY=0.5;exitDx=0;exitDy=0;labelBackgroundColor=default;strokeColor=default;align=center;verticalAlign=middle;fontFamily=Helvetica;fontSize=14;fontColor=default;endArrow=none;endFill=0;" parent="1" source="IrKqsWJ8-aQwSi9_sYCC-30" edge="1">
          <mxGeometry relative="1" as="geometry">
            <mxPoint x="421" y="324" as="targetPoint" />
          </mxGeometry>
        </mxCell>
        <mxCell id="IrKqsWJ8-aQwSi9_sYCC-30" value="Статус" style="ellipse;whiteSpace=wrap;html=1;align=center;fontSize=14;" parent="1" vertex="1">
          <mxGeometry x="301" y="304" width="100" height="40" as="geometry" />
        </mxCell>
        <mxCell id="cCWil6jc1VgAb4ucHLgY-11" style="edgeStyle=orthogonalEdgeStyle;rounded=0;orthogonalLoop=1;jettySize=auto;html=1;exitX=1;exitY=0.5;exitDx=0;exitDy=0;entryX=0.5;entryY=0;entryDx=0;entryDy=0;endArrow=none;endFill=0;" parent="1" source="ZUfEE-Q4AOUW63MSSEwQ-19" target="IrKqsWJ8-aQwSi9_sYCC-3" edge="1">
          <mxGeometry relative="1" as="geometry">
            <Array as="points">
              <mxPoint x="421" y="204" />
            </Array>
          </mxGeometry>
        </mxCell>
        <mxCell id="ZUfEE-Q4AOUW63MSSEwQ-24" style="edgeStyle=orthogonalEdgeStyle;rounded=0;orthogonalLoop=1;jettySize=auto;html=1;strokeColor=default;align=center;verticalAlign=middle;fontFamily=Helvetica;fontSize=11;fontColor=default;labelBackgroundColor=default;endArrow=none;endFill=0;" parent="1" source="cCWil6jc1VgAb4ucHLgY-10" edge="1">
          <mxGeometry relative="1" as="geometry">
            <mxPoint x="420" y="264" as="targetPoint" />
          </mxGeometry>
        </mxCell>
        <mxCell id="cCWil6jc1VgAb4ucHLgY-10" value="Сумма" style="ellipse;whiteSpace=wrap;html=1;align=center;fontSize=14;" parent="1" vertex="1">
          <mxGeometry x="301" y="244" width="100" height="40" as="geometry" />
        </mxCell>
        <mxCell id="ZUfEE-Q4AOUW63MSSEwQ-13" value="" style="group" parent="1" vertex="1" connectable="0">
          <mxGeometry x="414" y="30" width="170" height="240" as="geometry" />
        </mxCell>
        <mxCell id="ZUfEE-Q4AOUW63MSSEwQ-14" style="edgeStyle=orthogonalEdgeStyle;rounded=0;orthogonalLoop=1;jettySize=auto;html=1;exitX=1;exitY=0.5;exitDx=0;exitDy=0;endArrow=none;endFill=0;" parent="ZUfEE-Q4AOUW63MSSEwQ-13" source="ZUfEE-Q4AOUW63MSSEwQ-2" edge="1">
          <mxGeometry relative="1" as="geometry">
            <mxPoint x="120" y="140.11940298507466" as="targetPoint" />
          </mxGeometry>
        </mxCell>
        <mxCell id="ZUfEE-Q4AOUW63MSSEwQ-2" value="Адрес &lt;br style=&quot;font-size: 14px;&quot;&gt;доставки" style="ellipse;whiteSpace=wrap;html=1;align=center;fontSize=14;" parent="ZUfEE-Q4AOUW63MSSEwQ-13" vertex="1">
          <mxGeometry y="120" width="100" height="40" as="geometry" />
        </mxCell>
        <mxCell id="ZUfEE-Q4AOUW63MSSEwQ-15" style="edgeStyle=orthogonalEdgeStyle;rounded=0;orthogonalLoop=1;jettySize=auto;html=1;exitX=1;exitY=0.5;exitDx=0;exitDy=0;strokeColor=default;align=center;verticalAlign=middle;fontFamily=Helvetica;fontSize=11;fontColor=default;labelBackgroundColor=default;endArrow=none;endFill=0;" parent="ZUfEE-Q4AOUW63MSSEwQ-13" source="ZUfEE-Q4AOUW63MSSEwQ-3" edge="1">
          <mxGeometry relative="1" as="geometry">
            <mxPoint x="120" y="80.11940298507466" as="targetPoint" />
          </mxGeometry>
        </mxCell>
        <mxCell id="ZUfEE-Q4AOUW63MSSEwQ-3" value="Дата &lt;br style=&quot;font-size: 14px;&quot;&gt;доставки" style="ellipse;whiteSpace=wrap;html=1;align=center;fontSize=14;" parent="ZUfEE-Q4AOUW63MSSEwQ-13" vertex="1">
          <mxGeometry y="60" width="100" height="40" as="geometry" />
        </mxCell>
        <mxCell id="ZUfEE-Q4AOUW63MSSEwQ-4" value="Получатель" style="ellipse;whiteSpace=wrap;html=1;align=center;fontSize=14;" parent="ZUfEE-Q4AOUW63MSSEwQ-13" vertex="1">
          <mxGeometry width="100" height="40" as="geometry" />
        </mxCell>
        <mxCell id="ZUfEE-Q4AOUW63MSSEwQ-6" style="edgeStyle=orthogonalEdgeStyle;rounded=0;orthogonalLoop=1;jettySize=auto;html=1;exitX=0.5;exitY=0;exitDx=0;exitDy=0;entryX=1;entryY=0.5;entryDx=0;entryDy=0;endArrow=none;endFill=0;" parent="ZUfEE-Q4AOUW63MSSEwQ-13" source="ZUfEE-Q4AOUW63MSSEwQ-5" target="ZUfEE-Q4AOUW63MSSEwQ-4" edge="1">
          <mxGeometry relative="1" as="geometry" />
        </mxCell>
        <mxCell id="ZUfEE-Q4AOUW63MSSEwQ-5" value="Доставка" style="whiteSpace=wrap;html=1;align=center;fontSize=14;" parent="ZUfEE-Q4AOUW63MSSEwQ-13" vertex="1">
          <mxGeometry x="70" y="200" width="100" height="40" as="geometry" />
        </mxCell>
        <mxCell id="ZUfEE-Q4AOUW63MSSEwQ-19" value="Дата &lt;br style=&quot;font-size: 14px;&quot;&gt;создания" style="ellipse;whiteSpace=wrap;html=1;align=center;fontSize=14;" parent="1" vertex="1">
          <mxGeometry x="301" y="184" width="100" height="40" as="geometry" />
        </mxCell>
        <mxCell id="X61aSGdKCso7lp-42TTh-1" value="Наличие подписки" style="ellipse;whiteSpace=wrap;html=1;align=center;fontSize=14;" vertex="1" parent="1">
          <mxGeometry x="614" y="124" width="100" height="40" as="geometry" />
        </mxCell>
        <mxCell id="X61aSGdKCso7lp-42TTh-4" style="edgeStyle=orthogonalEdgeStyle;shape=connector;rounded=0;orthogonalLoop=1;jettySize=auto;html=1;exitX=1;exitY=0.5;exitDx=0;exitDy=0;labelBackgroundColor=default;strokeColor=default;align=center;verticalAlign=middle;fontFamily=Helvetica;fontSize=14;fontColor=default;endArrow=none;endFill=0;" edge="1" parent="1">
          <mxGeometry relative="1" as="geometry">
            <mxPoint x="734.0000000000001" y="203.89" as="targetPoint" />
            <mxPoint x="714" y="203.89" as="sourcePoint" />
          </mxGeometry>
        </mxCell>
      </root>
    </mxGraphModel>
  </diagram>
</mxfile>
